<svg xmlns="http://www.w3.org/2000/svg" viewBox="0 0 463.57 519.86"><defs><style>.cls-1{fill:#fff;}</style></defs><title>Asset 2</title><g id="Layer_2" data-name="Layer 2"><g id="Crescent"><path class="cls-1" d="M463.57,441.6c-32,28-104,58.09-148.55,58.62-89.31,1.07-167.18-39.85-212.6-103.53A246.1,246.1,0,0,1,61.61,261c0-56.63,19.32-109,52-151.43h.15a229.9,229.9,0,0,1,32.26-32.89c70.23-58.47,153.87-56.29,166.51-55.78,75,3.07,126.28,39.94,144,54C422.57,33.6,353.27,3,289.24.27a282.28,282.28,0,0,0-179,54C43.38,101.25,0,176.76,0,261.91A246.75,246.75,0,0,0,27.57,375.37q1.09,2.13,2.24,4.23H29C70.37,457.82,153.05,512,249.71,519.06l1.36.1c1.62.11,3.24.21,4.88.29l1.76.1q2.94.13,5.89.21l2,0,4.51.05h2.14l3.09,0,1.31,0c2.41,0,4.83-.11,7.26-.21,2.12-.09,4.28-.22,6.46-.39q10-.68,19.79-2c-.57,0-1.14-.1-1.7-.15C364.62,508,430.54,477.53,463.57,441.6Z"/></g></g></svg>